IKResults
version=1
nRows=8
nColumns=40
inDegrees=yes

Units are S.I. units (second, meters, Newtons, ...)
Angles are in degrees.

endheader
time	pelvis_tilt	pelvis_list	pelvis_rotation	pelvis_tx	pelvis_ty	pelvis_tz	hip_flexion_r	hip_adduction_r	hip_rotation_r	knee_angle_r	knee_angle_r_beta	ankle_angle_r	subtalar_angle_r	mtp_angle_r	hip_flexion_l	hip_adduction_l	hip_rotation_l	knee_angle_l	knee_angle_l_beta	ankle_angle_l	subtalar_angle_l	mtp_angle_l	lumbar_extension	lumbar_bending	lumbar_rotation	arm_flex_r	arm_add_r	arm_rot_r	elbow_flex_r	pro_sup_r	wrist_flex_r	wrist_dev_r	arm_flex_l	arm_add_l	arm_rot_l	elbow_flex_l	pro_sup_l	wrist_flex_l	wrist_dev_l
      2.97000000	     15.14013815	     -4.64442013	      8.02192683	      0.89493154	      0.95015828	      1.42622965	     -5.29695152	      5.71647099	    -22.64084009	    -15.08432274	     -0.26327110	      2.45662611	      1.68511802	     -8.62767219	    -23.84771981	      8.70715742	      3.30653623	    -35.94123607	     -0.62729291	     -2.59161635	     14.16786479	     -2.05834578	    -21.65412684	      7.60849098	     -5.33010239	     -0.52912438	     -9.60223043	     -0.64766239	     20.43738917	     89.95437384	      0.00000000	      0.00000000	      7.58401331	      6.74268072	      0.20452897	     27.02646930	     89.95437384	      0.00000000	      0.00000000
      2.98000000	     15.16817276	     -4.79233851	      8.25141500	      0.90066449	      0.95032650	      1.42741590	     -5.89402581	      6.12866346	    -22.67053692	    -14.66830411	     -0.25601020	      2.85128072	      2.21284091	     -8.58714598	    -22.75090275	      9.07796219	      3.20152539	    -38.01092005	     -0.66341571	     -2.70016884	     15.11567009	     -1.89589936	    -21.68504469	      7.83192825	     -5.42536893	     -0.47091869	     -9.66629817	     -0.24819567	     20.84350122	     89.95437384	      0.00000000	      0.00000000	      7.48141230	      6.74994667	      0.58799455	     26.38395735	     89.95437384	      0.00000000	      0.00000000
      2.99000000	     15.27320869	     -4.77247635	      8.18772214	      0.90627302	      0.95067217	      1.42866282	     -6.50229144	      6.25624765	    -22.77596912	    -14.45993340	     -0.25237345	      3.08884359	      2.58869336	     -8.51745351	    -21.89894874	      9.14048446	      3.33219461	    -39.78707874	     -0.69441552	     -2.21234384	     15.71437519	     -1.73617018	    -21.88011399	      7.81493726	     -5.20737155	     -0.37034536	     -9.74922605	      0.03436500	     21.14920770	     89.95437384	      0.00000000	      0.00000000	      7.34721097	      6.71966188	      1.11016873	     25.92733734	     89.95437384	      0.00000000	      0.00000000
      3.00000000	     15.46572424	     -4.70215157	      8.07460962	      0.91189837	      0.95113944	      1.43002617	     -7.15267251	      6.32468903	    -22.72366568	    -14.39722096	     -0.25127891	      3.41155917	      2.82923612	     -8.46314723	    -21.20409873	      9.13861048	      3.53566124	    -41.30536630	     -0.72091464	     -1.72201792	     16.17537084	     -1.59573830	    -22.15682789	      7.71228605	     -4.94782385	     -0.25965565	     -9.79215625	      0.24738464	     21.39600305	     89.95437384	      0.00000000	      0.00000000	      7.17026265	      6.73714933	      1.62422360	     25.57532725	     89.95437384	      0.00000000	      0.00000000
      3.01000000	     15.64146977	     -4.62673758	      8.00557123	      0.91753263	      0.95161867	      1.43116757	     -7.84719931	      6.39341826	    -22.60825132	    -14.20865798	     -0.24798786	      3.65961953	      3.14956261	     -8.42869120	    -20.47965569	      9.14928693	      3.75188921	    -42.69110825	     -0.74510040	     -0.65770042	     16.64364941	     -1.46991191	    -22.38662511	      7.63549390	     -4.74983134	     -0.15795560	     -9.83695565	      0.37320745	     21.66360043	     89.95437384	      0.00000000	      0.00000000	      6.91436336	      6.69739608	      2.32325159	     25.24458615	     89.95437384	      0.00000000	      0.00000000
      3.02000000	     15.80192666	     -4.47516612	      7.76666835	      0.92302461	      0.95218101	      1.43260116	     -8.47658062	      6.33461612	    -22.72249590	    -14.09787701	     -0.24605437	      3.88974019	      3.19357929	     -8.36742654	    -19.83117579	      8.97528223	      3.98029883	    -43.77990649	     -0.76410351	     -0.02046865	     16.79359677	     -1.41747908	    -22.65121453	      7.38651321	     -4.29374797	     -0.05840372	     -9.87556239	      0.48493193	     21.84652767	     89.95437384	      0.00000000	      0.00000000	      6.67392017	      6.73757161	      2.76563988	     25.07825514	     89.95437384	      0.00000000	      0.00000000
      3.03000000	     15.66910028	     -4.65981741	      7.82149115	      0.92836699	      0.95219589	      1.43363563	     -8.84211319	      6.70199416	    -22.64561011	    -13.72299630	     -0.23951147	      4.03355531	      3.79813723	     -8.33816559	    -18.62107667	      9.24987525	      4.07175715	    -45.07070275	     -0.78663216	      1.71833562	     17.17945910	     -0.65330856	    -22.52126998	      7.58017643	     -4.29532823	     -0.00608675	    -10.01321353	      1.09940502	     22.27911205	     89.95437384	      0.00000000	      0.00000000	      6.43897510	      6.37242659	      5.26435715	     24.57704101	     89.95437384	      0.00000000	      0.00000000
      3.04000000	     15.80917189	     -4.55302989	      7.63485387	      0.93392352	      0.95272177	      1.43494701	     -9.47630134	      6.72926225	    -22.34749545	    -13.57578388	     -0.23694213	      4.36941052	      3.98734123	     -8.31182331	    -17.99026983	      9.09363449	      4.21809119	    -45.77272854	     -0.79888482	      2.78355303	     17.39387191	     -0.43332083	    -22.70547956	      7.39287261	     -3.96958499	      0.00847982	    -10.04134498	      1.15705184	     22.60984870	     89.95437384	      0.00000000	      0.00000000	      6.10583689	      6.39798915	      5.90714286	     24.42304204	     89.95437384	      0.00000000	      0.00000000
